<svg width="20" height="23" viewBox="0 0 20 23" fill="none" xmlns="http://www.w3.org/2000/svg">
<path d="M10.3901 10.556C13.0382 10.556 15.1844 8.41707 15.1844 5.77797C15.1844 3.13887 13.0382 0.999969 10.3901 0.999969C7.74196 0.999969 5.59575 3.13887 5.59575 5.77797C5.59575 8.41707 7.74196 10.556 10.3901 10.556ZM13.7461 11.7505H13.1206C12.2891 12.1312 11.3639 12.3477 10.3901 12.3477C9.41623 12.3477 8.49482 12.1312 7.65956 11.7505H7.03405C4.25483 11.7505 2 13.9976 2 16.7674V18.3202C2 19.3094 2.8053 20.112 3.79787 20.112H16.9823C17.9749 20.112 18.7802 19.3094 18.7802 18.3202V16.7674C18.7802 13.9976 16.5253 11.7505 13.7461 11.7505Z" fill="#649FBF"/>
</svg>
